<?xml version="1.0" encoding="UTF-8" standalone="no"?>
<!-- Created with Inkscape (http://www.inkscape.org/) -->

<svg
   width="265.38766mm"
   height="203.04121mm"
   viewBox="0 0 265.38766 203.04121"
   version="1.1"
   id="svg5"
   inkscape:version="1.1.2 (0a00cf5339, 2022-02-04)"
   sodipodi:docname="sample-space-a-b.svg"
   xmlns:inkscape="http://www.inkscape.org/namespaces/inkscape"
   xmlns:sodipodi="http://sodipodi.sourceforge.net/DTD/sodipodi-0.dtd"
   xmlns:xlink="http://www.w3.org/1999/xlink"
   xmlns="http://www.w3.org/2000/svg"
   xmlns:svg="http://www.w3.org/2000/svg">
  <sodipodi:namedview
     id="namedview7"
     pagecolor="#ffffff"
     bordercolor="#666666"
     borderopacity="1.0"
     inkscape:pageshadow="2"
     inkscape:pageopacity="0.0"
     inkscape:pagecheckerboard="0"
     inkscape:document-units="mm"
     showgrid="false"
     fit-margin-top="0"
     fit-margin-left="0"
     fit-margin-right="0"
     fit-margin-bottom="0"
     inkscape:zoom="1.8116734"
     inkscape:cx="389.41897"
     inkscape:cy="442.40865"
     inkscape:window-width="2204"
     inkscape:window-height="1440"
     inkscape:window-x="0"
     inkscape:window-y="0"
     inkscape:window-maximized="1"
     inkscape:current-layer="layer1" />
  <defs
     id="defs2" />
  <g
     inkscape:label="Layer 1"
     inkscape:groupmode="layer"
     id="layer1"
     transform="translate(0.14365821,-4.9397309)">
    <circle
       style="fill:#666666;fill-rule:evenodd;stroke-width:0.158649"
       id="path31"
       cx="36.65868"
       cy="45.760822"
       r="4.579309"
       inkscape:tile-cx="36.658679"
       inkscape:tile-cy="45.760821"
       inkscape:tile-w="9.1586178"
       inkscape:tile-h="9.1586178"
       inkscape:tile-x0="32.07937"
       inkscape:tile-y0="41.181512" />
    <use
       x="0"
       y="0"
       inkscape:tiled-clone-of="#path31"
       xlink:href="#path31"
       transform="translate(3.2224638,31.591227)"
       id="use1173"
       width="100%"
       height="100%" />
    <use
       x="0"
       y="0"
       inkscape:tiled-clone-of="#path31"
       xlink:href="#path31"
       transform="translate(1.8752848,54.421798)"
       id="use1175"
       width="100%"
       height="100%" />
    <use
       x="0"
       y="0"
       inkscape:tiled-clone-of="#path31"
       xlink:href="#path31"
       transform="translate(-3.9157073,83.104507)"
       id="use1177"
       width="100%"
       height="100%" />
    <use
       x="0"
       y="0"
       inkscape:tiled-clone-of="#path31"
       xlink:href="#path31"
       transform="translate(3.0507149,106.63247)"
       id="use1179"
       width="100%"
       height="100%" />
    <use
       x="0"
       y="0"
       inkscape:tiled-clone-of="#path31"
       xlink:href="#path31"
       transform="translate(27.761103,3.3020328)"
       id="use1181"
       width="100%"
       height="100%" />
    <use
       x="0"
       y="0"
       inkscape:tiled-clone-of="#path31"
       xlink:href="#path31"
       transform="translate(24.974549,26.58955)"
       id="use1183"
       width="100%"
       height="100%" />
    <use
       x="0"
       y="0"
       inkscape:tiled-clone-of="#path31"
       xlink:href="#path31"
       transform="translate(31.539737,50.464047)"
       id="use1185"
       width="100%"
       height="100%" />
    <use
       x="0"
       y="0"
       inkscape:tiled-clone-of="#path31"
       xlink:href="#path31"
       transform="translate(31.037278,82.315732)"
       id="use1187"
       width="100%"
       height="100%" />
    <use
       x="0"
       y="0"
       inkscape:tiled-clone-of="#path31"
       xlink:href="#path31"
       transform="translate(30.256107,111.34099)"
       id="use1189"
       width="100%"
       height="100%" />
    <use
       x="0"
       y="0"
       inkscape:tiled-clone-of="#path31"
       xlink:href="#path31"
       transform="translate(53.155156,-4.3530755)"
       id="use1191"
       width="100%"
       height="100%" />
    <use
       x="0"
       y="0"
       inkscape:tiled-clone-of="#path31"
       xlink:href="#path31"
       transform="translate(54.083528,25.522956)"
       id="use1193"
       width="100%"
       height="100%" />
    <use
       x="0"
       y="0"
       inkscape:tiled-clone-of="#path31"
       xlink:href="#path31"
       transform="translate(56.762822,53.63534)"
       id="use1195"
       width="100%"
       height="100%" />
    <use
       x="0"
       y="0"
       inkscape:tiled-clone-of="#path31"
       xlink:href="#path31"
       transform="translate(52.140052,84.684582)"
       id="use1197"
       width="100%"
       height="100%" />
    <use
       x="0"
       y="0"
       inkscape:tiled-clone-of="#path31"
       xlink:href="#path31"
       transform="translate(54.588206,107.62774)"
       id="use1199"
       width="100%"
       height="100%" />
    <use
       x="0"
       y="0"
       inkscape:tiled-clone-of="#path31"
       xlink:href="#path31"
       transform="translate(79.434855,-0.06942319)"
       id="use1201"
       width="100%"
       height="100%" />
    <use
       x="0"
       y="0"
       inkscape:tiled-clone-of="#path31"
       xlink:href="#path31"
       transform="translate(78.142078,23.846947)"
       id="use1203"
       width="100%"
       height="100%" />
    <use
       x="0"
       y="0"
       inkscape:tiled-clone-of="#path31"
       xlink:href="#path31"
       transform="translate(82.116036,54.267339)"
       id="use1205"
       width="100%"
       height="100%" />
    <use
       x="0"
       y="0"
       inkscape:tiled-clone-of="#path31"
       xlink:href="#path31"
       transform="translate(85.013753,79.244373)"
       id="use1207"
       width="100%"
       height="100%" />
    <use
       x="0"
       y="0"
       inkscape:tiled-clone-of="#path31"
       xlink:href="#path31"
       transform="translate(79.230297,108.47247)"
       id="use1209"
       width="100%"
       height="100%" />
    <use
       x="0"
       y="0"
       inkscape:tiled-clone-of="#path31"
       xlink:href="#path31"
       transform="translate(112.47105,2.4393911)"
       id="use1211"
       width="100%"
       height="100%" />
    <use
       x="0"
       y="0"
       inkscape:tiled-clone-of="#path31"
       xlink:href="#path31"
       transform="translate(113.1286,25.025228)"
       id="use1213"
       width="100%"
       height="100%" />
    <use
       x="0"
       y="0"
       inkscape:tiled-clone-of="#path31"
       xlink:href="#path31"
       transform="translate(107.11917,57.992849)"
       id="use1215"
       width="100%"
       height="100%" />
    <use
       x="0"
       y="0"
       inkscape:tiled-clone-of="#path31"
       xlink:href="#path31"
       transform="translate(112.25614,85.816637)"
       id="use1217"
       width="100%"
       height="100%" />
    <use
       x="0"
       y="0"
       inkscape:tiled-clone-of="#path31"
       xlink:href="#path31"
       transform="translate(110.49013,112.92542)"
       id="use1219"
       width="100%"
       height="100%" />
    <use
       x="0"
       y="0"
       inkscape:tiled-clone-of="#path31"
       xlink:href="#path31"
       transform="translate(135.80593,-4.2826149)"
       id="use1221"
       width="100%"
       height="100%" />
    <use
       x="0"
       y="0"
       inkscape:tiled-clone-of="#path31"
       xlink:href="#path31"
       transform="translate(133.56115,31.015237)"
       id="use1223"
       width="100%"
       height="100%" />
    <use
       x="0"
       y="0"
       inkscape:tiled-clone-of="#path31"
       xlink:href="#path31"
       transform="translate(133.72109,52.5493)"
       id="use1225"
       width="100%"
       height="100%" />
    <use
       x="0"
       y="0"
       inkscape:tiled-clone-of="#path31"
       xlink:href="#path31"
       transform="translate(141.60849,82.803045)"
       id="use1227"
       width="100%"
       height="100%" />
    <use
       x="0"
       y="0"
       inkscape:tiled-clone-of="#path31"
       xlink:href="#path31"
       transform="translate(139.94687,108.39824)"
       id="use1229"
       width="100%"
       height="100%" />
    <use
       x="0"
       y="0"
       inkscape:tiled-clone-of="#path31"
       xlink:href="#path31"
       transform="translate(165.17874,3.8680475)"
       id="use1231"
       width="100%"
       height="100%" />
    <use
       x="0"
       y="0"
       inkscape:tiled-clone-of="#path31"
       xlink:href="#path31"
       transform="translate(164.27644,30.18158)"
       id="use1233"
       width="100%"
       height="100%" />
    <use
       x="0"
       y="0"
       inkscape:tiled-clone-of="#path31"
       xlink:href="#path31"
       transform="translate(162.67754,54.55059)"
       id="use1235"
       width="100%"
       height="100%" />
    <use
       x="0"
       y="0"
       inkscape:tiled-clone-of="#path31"
       xlink:href="#path31"
       transform="translate(161.59964,78.719529)"
       id="use1237"
       width="100%"
       height="100%" />
    <use
       x="0"
       y="0"
       inkscape:tiled-clone-of="#path31"
       xlink:href="#path31"
       transform="translate(162.92975,114.46712)"
       id="use1239"
       width="100%"
       height="100%" />
    <use
       x="0"
       y="0"
       inkscape:tiled-clone-of="#path31"
       xlink:href="#path31"
       transform="translate(196.42667,-0.47080324)"
       id="use1241"
       width="100%"
       height="100%" />
    <use
       x="0"
       y="0"
       inkscape:tiled-clone-of="#path31"
       xlink:href="#path31"
       transform="translate(196.58748,29.774442)"
       id="use1243"
       width="100%"
       height="100%" />
    <use
       x="0"
       y="0"
       inkscape:tiled-clone-of="#path31"
       xlink:href="#path31"
       transform="translate(191.32663,53.167638)"
       id="use1245"
       width="100%"
       height="100%" />
    <use
       x="0"
       y="0"
       inkscape:tiled-clone-of="#path31"
       xlink:href="#path31"
       transform="translate(193.58129,82.814565)"
       id="use1247"
       width="100%"
       height="100%" />
    <use
       x="0"
       y="0"
       inkscape:tiled-clone-of="#path31"
       xlink:href="#path31"
       transform="translate(188.62483,107.28247)"
       id="use1249"
       width="100%"
       height="100%" />
    <path
       style="fill:none;stroke:#4d4d4d;stroke-width:0.965;stroke-linecap:butt;stroke-linejoin:miter;stroke-miterlimit:4;stroke-dasharray:none;stroke-opacity:1"
       d="m 19.435441,28.581151 c 17.691212,-5.15929 36.056428,-9.955278 54.743562,-8.172728 8.353983,0.79688 16.50216,4.054721 24.703743,5.81369 13.628334,2.922828 28.590444,3.540524 42.503024,2.542984 7.96761,-0.571283 16.41828,-3.814311 23.97764,-6.176742 20.74271,-6.482455 39.66132,-9.636615 60.66697,-3.632144 5.51587,1.576711 11.71112,1.59923 16.71013,4.722917 11.37805,7.109704 21.85295,20.16102 17.07317,34.511017 -2.41413,7.247768 -7.19022,13.43053 -8.71811,21.069985 -3.58588,17.929405 11.53814,28.71681 13.44103,43.95685 1.72218,13.79283 -6.69737,19.27615 -13.80409,29.42666 -3.77371,5.39 -6.91036,11.27318 -10.53499,16.71012 -5.85283,8.8331 -16.58006,13.58794 -25.31044,19.40963 -10.41948,6.94803 -22.64112,17.23225 -35.60018,18.527 -19.96407,1.99464 -38.37262,-10.92088 -56.30872,-17.43784 -6.74574,-2.45101 -13.69295,-2.93137 -20.70694,-3.63214 -25.021977,-2.49998 -48.87823,9.66284 -73.74495,6.90123 -5.511242,-0.61206 -12.327189,-5.63636 -16.348683,-9.08116 C -4.5074158,169.7481 16.617276,132.10073 18.715789,113.20479 19.978904,101.83114 10.160685,95.753748 4.2194834,87.823344 -1.6764132,79.953414 0.22512899,65.45836 2.8721532,57.517287 10.434136,47.27815 13.922476,38.71972 19.435441,28.581151 Z"
       id="path1626" />
    <path
       style="fill:none;stroke:#000000;stroke-width:0.665;stroke-linecap:butt;stroke-linejoin:miter;stroke-miterlimit:4;stroke-dasharray:none;stroke-opacity:1"
       d="m 85.914491,56.670163 c -15.98759,2.761585 -21.878679,-1.618116 -30.236673,6.739878 -5.312582,5.312584 -0.419169,19.924022 2.451013,25.681566 4.834059,9.697067 -12.685046,34.029653 0.361439,42.720853 3.312435,2.20666 6.044038,5.22137 10.170327,5.81047 4.385836,0.62615 8.509462,1.09077 13.077978,1.09077 4.084066,0 9.387234,0.7546 13.077975,-1.09077 15.99086,-7.99543 12.23086,-15.70999 28.24876,-23.71301 7.42684,-3.71068 25.61196,-2.65555 27.82761,-4.88105 1.18632,-1.19159 0.72433,-5.00381 1.09077,-6.47041 4.25676,-17.036489 -11.67006,-21.84518 -21.7977,-31.961582 -3.49914,-3.495254 -4.0509,-10.122773 -8.34538,-12.697177 -1.16444,-0.698044 -13.8933,-3.878402 -15.60644,-1.815263 -1.37972,1.661593 -17.515157,0.150396 -20.319679,0.585725 z"
       id="path2707"
       sodipodi:nodetypes="csssssssscsssc" />
    <path
       style="fill:none;stroke:#000000;stroke-width:0.665;stroke-linecap:butt;stroke-linejoin:miter;stroke-miterlimit:4;stroke-dasharray:none;stroke-opacity:1"
       d="m 155.98535,147.76744 c -3.76061,-4.50872 -20.1076,2.68569 -24.33747,-1.54419 -7.24822,-7.24822 -20.22063,-3.51684 -24.84089,-15.06751 -1.69265,-4.23161 -1.08916,-9.31154 -1.08916,-13.80408 0,-5.82547 -0.90881,-13.17976 1.81526,-18.460846 4.15894,-8.062857 13.95685,-14.438466 23.22733,-15.982403 9.47257,-1.577594 15.30452,7.264289 23.96473,7.264289 9.77042,0 26.7213,-7.584958 32.68607,4.353409 3.85004,7.705791 -1.75234,15.878631 -1.75234,23.843711 0,5.96586 2.53237,9.74605 3.63215,15.24984 -0.35064,7.77291 -8.37573,15.16173 -13.79772,13.62014 -8.82018,2.11962 -12.69175,8.42224 -19.50796,0.52764 z"
       id="path2709"
       sodipodi:nodetypes="cssssssssccc" />
    <text
       xml:space="preserve"
       style="font-style:normal;font-weight:normal;font-size:16.9333px;line-height:1.25;font-family:sans-serif;fill:#000000;fill-opacity:1;stroke:none;stroke-width:0.264583"
       x="32.655411"
       y="17.433001"
       id="text5276"><tspan
         sodipodi:role="line"
         id="tspan5274"
         style="font-size:16.9333px;stroke-width:0.264583"
         x="32.655411"
         y="17.433001">Ω</tspan></text>
    <text
       xml:space="preserve"
       style="font-style:normal;font-variant:normal;font-weight:normal;font-stretch:normal;font-size:16.933px;line-height:1.25;font-family:sans-serif;-inkscape-font-specification:'sans-serif, Normal';font-variant-ligatures:normal;font-variant-caps:normal;font-variant-numeric:normal;font-variant-east-asian:normal;fill:#000000;fill-opacity:1;stroke:none;stroke-width:0.264583"
       x="74.843796"
       y="86.882637"
       id="text11762"><tspan
         sodipodi:role="line"
         id="tspan11760"
         style="font-style:normal;font-variant:normal;font-weight:normal;font-stretch:normal;font-size:16.933px;font-family:sans-serif;-inkscape-font-specification:'sans-serif, Normal';font-variant-ligatures:normal;font-variant-caps:normal;font-variant-numeric:normal;font-variant-east-asian:normal;stroke-width:0.264583"
         x="74.843796"
         y="86.882637">A</tspan></text>
    <text
       xml:space="preserve"
       style="font-style:normal;font-variant:normal;font-weight:normal;font-stretch:normal;font-size:16.933px;line-height:1.25;font-family:sans-serif;-inkscape-font-specification:'sans-serif, Normal';font-variant-ligatures:normal;font-variant-caps:normal;font-variant-numeric:normal;font-variant-east-asian:normal;fill:#000000;fill-opacity:1;stroke:none;stroke-width:0.264583"
       x="159.51047"
       y="139.7993"
       id="text13088"><tspan
         sodipodi:role="line"
         id="tspan13086"
         style="font-style:normal;font-variant:normal;font-weight:normal;font-stretch:normal;font-size:16.933px;font-family:sans-serif;-inkscape-font-specification:'sans-serif, Normal';font-variant-ligatures:normal;font-variant-caps:normal;font-variant-numeric:normal;font-variant-east-asian:normal;stroke-width:0.264583"
         x="159.51047"
         y="139.7993">B</tspan></text>
  </g>
</svg>
